<svg width="78" height="79" viewBox="0 0 78 79" fill="none" xmlns="http://www.w3.org/2000/svg">
<g filter="url(#filter0_d_2202_1045)">
<rect x="10" y="10" width="58" height="59" rx="12" fill="white"/>
</g>
<path fill-rule="evenodd" clip-rule="evenodd" d="M24.625 56.25C24.625 56.25 21.75 56.25 21.75 53.375C21.75 50.5 24.625 41.875 39 41.875C53.375 41.875 56.25 50.5 56.25 53.375C56.25 56.25 53.375 56.25 53.375 56.25H24.625ZM39 39C41.2875 39 43.4813 38.0913 45.0988 36.4738C46.7163 34.8563 47.625 32.6625 47.625 30.375C47.625 28.0875 46.7163 25.8937 45.0988 24.2762C43.4813 22.6587 41.2875 21.75 39 21.75C36.7125 21.75 34.5187 22.6587 32.9012 24.2762C31.2837 25.8937 30.375 28.0875 30.375 30.375C30.375 32.6625 31.2837 34.8563 32.9012 36.4738C34.5187 38.0913 36.7125 39 39 39Z" fill="#333333"/>
<defs>
<filter id="filter0_d_2202_1045" x="0" y="0" width="78" height="79" filterUnits="userSpaceOnUse" color-interpolation-filters="sRGB">
<feFlood flood-opacity="0" result="BackgroundImageFix"/>
<feColorMatrix in="SourceAlpha" type="matrix" values="0 0 0 0 0 0 0 0 0 0 0 0 0 0 0 0 0 0 127 0" result="hardAlpha"/>
<feOffset/>
<feGaussianBlur stdDeviation="5"/>
<feColorMatrix type="matrix" values="0 0 0 0 0 0 0 0 0 0 0 0 0 0 0 0 0 0 0.1 0"/>
<feBlend mode="normal" in2="BackgroundImageFix" result="effect1_dropShadow_2202_1045"/>
<feBlend mode="normal" in="SourceGraphic" in2="effect1_dropShadow_2202_1045" result="shape"/>
</filter>
</defs>
</svg>
