<svg width="58" height="58" viewBox="0 0 58 58" fill="none" xmlns="http://www.w3.org/2000/svg">
<path d="M36.25 29C36.25 30.9228 35.4862 32.7669 34.1265 34.1265C32.7669 35.4862 30.9228 36.25 29 36.25C27.0772 36.25 25.2331 35.4862 23.8735 34.1265C22.5138 32.7669 21.75 30.9228 21.75 29C21.75 27.0772 22.5138 25.2331 23.8735 23.8735C25.2331 22.5138 27.0772 21.75 29 21.75C30.9228 21.75 32.7669 22.5138 34.1265 23.8735C35.4862 25.2331 36.25 27.0772 36.25 29ZM19.1255 10.2587C19.5768 9.3548 20.271 8.59445 21.1303 8.06301C21.9896 7.53156 22.9799 7.25003 23.9902 7.25H34.0098C35.0201 7.25003 36.0104 7.53156 36.8697 8.06301C37.729 8.59445 38.4232 9.3548 38.8745 10.2587L40.9951 14.5H43.5C45.4228 14.5 47.2669 15.2638 48.6265 16.6235C49.9862 17.9831 50.75 19.8272 50.75 21.75V39.875C50.75 41.7978 49.9862 43.6419 48.6265 45.0015C47.2669 46.3612 45.4228 47.125 43.5 47.125H14.5C12.5772 47.125 10.7331 46.3612 9.37348 45.0015C8.01384 43.6419 7.25 41.7978 7.25 39.875V21.75C7.25 19.8272 8.01384 17.9831 9.37348 16.6235C10.7331 15.2638 12.5772 14.5 14.5 14.5H17.0049L19.1255 10.2587ZM39.875 29C39.875 26.1158 38.7292 23.3497 36.6898 21.3102C34.6503 19.2708 31.8842 18.125 29 18.125C26.1158 18.125 23.3497 19.2708 21.3102 21.3102C19.2708 23.3497 18.125 26.1158 18.125 29C18.125 31.8842 19.2708 34.6503 21.3102 36.6898C23.3497 38.7292 26.1158 39.875 29 39.875C31.8842 39.875 34.6503 38.7292 36.6898 36.6898C38.7292 34.6503 39.875 31.8842 39.875 29Z" fill="black"/>
</svg>
