<svg width="78" height="79" viewBox="0 0 78 79" fill="none" xmlns="http://www.w3.org/2000/svg">
<g filter="url(#filter0_d_2202_1029)">
<rect x="10" y="10" width="58" height="59" rx="12" fill="white"/>
</g>
<path d="M24.5575 21.52C24.0103 21.52 23.4854 21.7374 23.0985 22.1244C22.7115 22.5113 22.4941 23.0362 22.4941 23.5834C22.4941 24.1306 22.7115 24.6555 23.0985 25.0424C23.4854 25.4294 24.0103 25.6468 24.5575 25.6468H27.0748L27.7042 28.1682C27.7104 28.1973 27.7173 28.2261 27.7248 28.2549L30.5269 39.459L28.6843 41.2996C26.0844 43.8994 27.925 48.3439 31.6019 48.3439H49.318C49.8653 48.3439 50.3901 48.1265 50.7771 47.7396C51.164 47.3526 51.3814 46.8278 51.3814 46.2805C51.3814 45.7333 51.164 45.2085 50.7771 44.8215C50.3901 44.4346 49.8653 44.2172 49.318 44.2172H31.6019L33.6653 42.1538H47.2547C47.6378 42.1536 48.0132 42.0467 48.339 41.8452C48.6648 41.6437 48.9281 41.3554 49.0993 41.0127L55.2895 28.6325C55.4466 28.318 55.5208 27.9685 55.505 27.6173C55.4892 27.2661 55.3839 26.9247 55.1991 26.6256C55.0143 26.3265 54.7561 26.0796 54.4491 25.9083C54.1421 25.737 53.7964 25.647 53.4448 25.6468H31.3254L30.6857 23.082C30.574 22.6358 30.3163 22.2397 29.9537 21.9567C29.5911 21.6737 29.1443 21.52 28.6843 21.52H24.5575Z" fill="#333333"/>
<path d="M51.3814 53.5023C51.3814 54.3232 51.0553 55.1104 50.4749 55.6908C49.8945 56.2713 49.1072 56.5974 48.2863 56.5974C47.4655 56.5974 46.6782 56.2713 46.0978 55.6908C45.5174 55.1104 45.1913 54.3232 45.1913 53.5023C45.1913 52.6814 45.5174 51.8942 46.0978 51.3138C46.6782 50.7333 47.4655 50.4072 48.2863 50.4072C49.1072 50.4072 49.8945 50.7333 50.4749 51.3138C51.0553 51.8942 51.3814 52.6814 51.3814 53.5023Z" fill="#333333"/>
<path d="M31.7794 56.5974C32.6003 56.5974 33.3875 56.2713 33.9679 55.6908C34.5484 55.1104 34.8745 54.3232 34.8745 53.5023C34.8745 52.6814 34.5484 51.8942 33.9679 51.3138C33.3875 50.7333 32.6003 50.4072 31.7794 50.4072C30.9585 50.4072 30.1713 50.7333 29.5908 51.3138C29.0104 51.8942 28.6843 52.6814 28.6843 53.5023C28.6843 54.3232 29.0104 55.1104 29.5908 55.6908C30.1713 56.2713 30.9585 56.5974 31.7794 56.5974V56.5974Z" fill="#333333"/>
<defs>
<filter id="filter0_d_2202_1029" x="0" y="0" width="78" height="79" filterUnits="userSpaceOnUse" color-interpolation-filters="sRGB">
<feFlood flood-opacity="0" result="BackgroundImageFix"/>
<feColorMatrix in="SourceAlpha" type="matrix" values="0 0 0 0 0 0 0 0 0 0 0 0 0 0 0 0 0 0 127 0" result="hardAlpha"/>
<feOffset/>
<feGaussianBlur stdDeviation="5"/>
<feColorMatrix type="matrix" values="0 0 0 0 0 0 0 0 0 0 0 0 0 0 0 0 0 0 0.1 0"/>
<feBlend mode="normal" in2="BackgroundImageFix" result="effect1_dropShadow_2202_1029"/>
<feBlend mode="normal" in="SourceGraphic" in2="effect1_dropShadow_2202_1029" result="shape"/>
</filter>
</defs>
</svg>
