<svg xmlns="http://www.w3.org/2000/svg" fill="none" width="55" height="55" viewBox="0 0 55000 55000"><path d="M44650 8000h-34300a7370 7370 0 00-5197 2142A7293 7293 0 00 3000 15312v24376a7290 7290 0 00 2153 5170A7369 7369 0 00 10350 47000h34300a7370 7370 0 00 5197-2142A7293 7293 0 00 52000 39688V15311a7290 7290 0 00-2153-5170A7370 7370 0 00 44650 8000zm-1642 4875L27500 24453 11992 12875h31016zm1642 29250h-34300c-650 0-1273-257-1732-714a2431 2431 0 01-718-1724V15922L26030 29450a2459 2459 0 00 2940 0L47100 15922v23765a2430 2430 0 01-718 1724 2456 2456 0 01-1732 717" fill="#333"/></svg>
