<svg width="55" height="55" viewBox="0 0 55 55" fill="none" xmlns="http://www.w3.org/2000/svg">
<path d="M44.65 8H10.35C8.40066 8 6.53116 8.77042 5.15277 10.1418C3.77437 11.5131 3 13.3731 3 15.3125V39.6875C3 41.6269 3.77437 43.4869 5.15277 44.8582C6.53116 46.2296 8.40066 47 10.35 47H44.65C46.5993 47 48.4688 46.2296 49.8472 44.8582C51.2256 43.4869 52 41.6269 52 39.6875V15.3125C52 13.3731 51.2256 11.5131 49.8472 10.1418C48.4688 8.77042 46.5993 8 44.65 8ZM43.0085 12.875L27.5 24.4531L11.9915 12.875H43.0085ZM44.65 42.125H10.35C9.70022 42.125 9.07705 41.8682 8.61759 41.4111C8.15812 40.954 7.9 40.334 7.9 39.6875V15.9219L26.03 29.45C26.4541 29.7664 26.9699 29.9375 27.5 29.9375C28.0301 29.9375 28.5459 29.7664 28.97 29.45L47.1 15.9219V39.6875C47.1 40.334 46.8419 40.954 46.3824 41.4111C45.923 41.8682 45.2998 42.125 44.65 42.125Z" fill="#333333"/>
</svg>
