<svg width="45" height="45" viewBox="0 0 45 45" fill="none" xmlns="http://www.w3.org/2000/svg">
<path d="M40.5615 12.4632C39.9725 11.0993 39.1231 9.86331 38.061 8.82449C36.9981 7.78258 35.745 6.95458 34.3696 6.38553C32.9435 5.79312 31.4139 5.48988 29.8696 5.49344C27.7031 5.49344 25.5894 6.0867 23.7524 7.20731C23.313 7.47537 22.8955 7.76981 22.5 8.09061C22.1045 7.76981 21.687 7.47537 21.2476 7.20731C19.4106 6.0867 17.2969 5.49344 15.1304 5.49344C13.5703 5.49344 12.0586 5.79227 10.6304 6.38553C9.25049 6.95682 8.00684 7.7786 6.93896 8.82449C5.87547 9.86214 5.02593 11.0984 4.43848 12.4632C3.82764 13.8826 3.51562 15.3899 3.51562 16.9412C3.51562 18.4046 3.81445 19.9295 4.40771 21.4807C4.9043 22.7771 5.61621 24.1219 6.52588 25.4798C7.96729 27.6287 9.94922 29.8699 12.4102 32.1419C16.4883 35.908 20.5269 38.5096 20.6982 38.615L21.7397 39.283C22.2012 39.5774 22.7944 39.5774 23.2559 39.283L24.2974 38.615C24.4688 38.5052 28.5029 35.908 32.5854 32.1419C35.0464 29.8699 37.0283 27.6287 38.4697 25.4798C39.3794 24.1219 40.0957 22.7771 40.5879 21.4807C41.1812 19.9295 41.48 18.4046 41.48 16.9412C41.4844 15.3899 41.1724 13.8826 40.5615 12.4632ZM22.5 35.8069C22.5 35.8069 6.85547 25.783 6.85547 16.9412C6.85547 12.4632 10.5601 8.83328 15.1304 8.83328C18.3428 8.83328 21.1289 10.6263 22.5 13.2454C23.8711 10.6263 26.6572 8.83328 29.8696 8.83328C34.4399 8.83328 38.1445 12.4632 38.1445 16.9412C38.1445 25.783 22.5 35.8069 22.5 35.8069Z" fill="#333333"/>
</svg>
