<svg width="78" height="79" viewBox="0 0 78 79" fill="none" xmlns="http://www.w3.org/2000/svg">
<g filter="url(#filter0_d_2202_1098)">
<rect x="10" y="10" width="58" height="59" rx="12" fill="white"/>
</g>
<path d="M36.2208 20.855C36.9986 20.1996 37.9829 19.8401 39 19.8401C40.0171 19.8401 41.0014 20.1996 41.7792 20.855L54.7167 31.7705C55.6903 32.5889 56.25 33.7945 56.25 35.0671V53.8543C56.25 54.7439 55.8966 55.597 55.2676 56.226C54.6386 56.8551 53.7854 57.2085 52.8958 57.2085H47.1458C46.2563 57.2085 45.4031 56.8551 44.7741 56.226C44.145 55.597 43.7917 54.7439 43.7917 53.8543V44.271C43.7917 43.8897 43.6402 43.5241 43.3706 43.2545C43.101 42.9849 42.7354 42.8335 42.3542 42.8335H35.6458C35.2646 42.8335 34.899 42.9849 34.6294 43.2545C34.3598 43.5241 34.2083 43.8897 34.2083 44.271V53.8543C34.2083 54.7439 33.8549 55.597 33.2259 56.226C32.5969 56.8551 31.7437 57.2085 30.8542 57.2085H25.1042C24.6637 57.2085 24.2275 57.1217 23.8206 56.9531C23.4136 56.7846 23.0439 56.5375 22.7324 56.226C22.4209 55.9146 22.1739 55.5448 22.0053 55.1379C21.8368 54.7309 21.75 54.2948 21.75 53.8543V35.0652C21.75 33.7945 22.3097 32.5889 23.2833 31.7685L36.2208 20.855V20.855Z" fill="#333333"/>
<defs>
<filter id="filter0_d_2202_1098" x="0" y="0" width="78" height="79" filterUnits="userSpaceOnUse" color-interpolation-filters="sRGB">
<feFlood flood-opacity="0" result="BackgroundImageFix"/>
<feColorMatrix in="SourceAlpha" type="matrix" values="0 0 0 0 0 0 0 0 0 0 0 0 0 0 0 0 0 0 127 0" result="hardAlpha"/>
<feOffset/>
<feGaussianBlur stdDeviation="5"/>
<feColorMatrix type="matrix" values="0 0 0 0 0 0 0 0 0 0 0 0 0 0 0 0 0 0 0.1 0"/>
<feBlend mode="normal" in2="BackgroundImageFix" result="effect1_dropShadow_2202_1098"/>
<feBlend mode="normal" in="SourceGraphic" in2="effect1_dropShadow_2202_1098" result="shape"/>
</filter>
</defs>
</svg>
