<svg width="55" height="55" viewBox="0 0 55 55" fill="none" xmlns="http://www.w3.org/2000/svg">
<path d="M29.45 19.7C31.0015 19.7 32.4895 20.3164 33.5866 21.4135C34.6836 22.5105 35.3 23.9985 35.3 25.55C35.3 26.0672 35.5054 26.5632 35.8711 26.9289C36.2368 27.2946 36.7328 27.5 37.25 27.5C37.7671 27.5 38.2631 27.2946 38.6288 26.9289C38.9945 26.5632 39.2 26.0672 39.2 25.55C39.2 22.9642 38.1727 20.4842 36.3443 18.6558C34.5158 16.8273 32.0358 15.8 29.45 15.8C28.9328 15.8 28.4368 16.0055 28.0711 16.3712C27.7054 16.7369 27.5 17.2329 27.5 17.75C27.5 18.2672 27.7054 18.7632 28.0711 19.1289C28.4368 19.4946 28.9328 19.7 29.45 19.7Z" fill="#333333"/>
<path d="M29.4499 11.9C33.0701 11.9 36.5421 13.3381 39.1019 15.898C41.6618 18.4578 43.0999 21.9298 43.0999 25.55C43.0999 26.0671 43.3054 26.5631 43.6711 26.9288C44.0367 27.2945 44.5327 27.5 45.0499 27.5C45.5671 27.5 46.0631 27.2945 46.4288 26.9288C46.7945 26.5631 46.9999 26.0671 46.9999 25.55C46.9999 20.8954 45.1509 16.4315 41.8596 13.1403C38.5684 9.84901 34.1045 8 29.4499 8C28.9328 8 28.4368 8.20545 28.0711 8.57114C27.7054 8.93684 27.5 9.43282 27.5 9.95C27.5 10.4672 27.7054 10.9632 28.0711 11.3288C28.4368 11.6945 28.9328 11.9 29.4499 11.9ZM46.5124 35.1244C46.4051 34.8114 46.22 34.5308 45.9744 34.3091C45.7288 34.0873 45.4307 33.9317 45.1084 33.8569L33.4084 31.1854C33.0909 31.1134 32.7603 31.1221 32.4469 31.2107C32.1336 31.2992 31.8474 31.4649 31.6144 31.6924C31.3414 31.9459 31.3219 31.9654 30.0544 34.3834C25.8487 32.4454 22.4787 29.0616 20.558 24.848C23.0345 23.6 23.054 23.6 23.3075 23.3075C23.535 23.0745 23.7007 22.7883 23.7892 22.475C23.8778 22.1616 23.8865 21.831 23.8145 21.5135L21.143 9.95C21.0682 9.62765 20.9126 9.32964 20.6908 9.08402C20.4691 8.8384 20.1885 8.65325 19.8755 8.546C19.4201 8.38335 18.9498 8.26579 18.4715 8.195C17.9786 8.08072 17.4757 8.0154 16.97 8C14.591 8 12.3094 8.94505 10.6272 10.6272C8.94505 12.3094 8 14.591 8 16.97C8.01032 24.9312 11.1775 32.5635 16.807 38.1929C22.4364 43.8224 30.0687 46.9896 38.0299 46.9999C39.2079 46.9999 40.3743 46.7679 41.4626 46.3171C42.5509 45.8663 43.5397 45.2056 44.3727 44.3727C45.2056 43.5397 45.8663 42.5509 46.3171 41.4626C46.7679 40.3743 46.9999 39.2079 46.9999 38.0299C47.0005 37.5336 46.9614 37.038 46.8829 36.5479C46.8009 36.0636 46.677 35.5873 46.5124 35.1244Z" fill="#333333"/>
</svg>
