<svg xmlns="http://www.w3.org/2000/svg" fill="none" width="55" height="55" viewBox="0 0 5500 5500"><path d="M2945 1970a585 585 0 01 585 585 195 195 0 10 390 0 975 975 0 00-975-975 195 195 0 00 0 390" fill="#333"/><path d="M2945 1190A1365 1365 0 01 4310 2555a195 195 0 00 390 0A1755 1755 0 00 2945 800a195 195 0 00 0 390zm1706.2 2322.4a195 195 0 00-140.4-126.7l-1170-267.2a195 195 0 00-179.4 50.7c-27.3 25.4-29.2 27.3-156 269.1a1932.5 1932.5 0 01-949.6-953.5c247.7-124.8 249.6-124.8 275-154a195.1 195.1 0 00 50.6-179.4L2114.4 995a195 195 0 00-126.7-140.4 739.2 739.2 0 00-140.5-35A768.3 768.3 0 00 1697 800 897 897 0 00 800 1697 3006.9 3006.9 0 00 3803 4700 897 897 0 00 4700 3803a930 930 0 00-11.7-148.2 846.8 846.8 0 00-37-142.4" fill="#333"/></svg>
