<svg width="16" height="14" viewBox="0 0 16 14" fill="none" xmlns="http://www.w3.org/2000/svg">
<path d="M15.8537 2.86353L13.187 0.148609C13.0933 0.0534459 12.9664 0 12.8341 0C12.7017 0 12.5748 0.0534459 12.4811 0.148609L5.3968 7.36002L3.51924 5.44899C3.42563 5.35372 3.29867 5.3002 3.1663 5.3002C3.03392 5.3002 2.90697 5.35372 2.81335 5.44899L0.146075 8.16391C0.0525389 8.25923 0 8.38845 0 8.52319C0 8.65792 0.0525389 8.78714 0.146075 8.88247L5.02827 13.8512C5.0746 13.8984 5.12961 13.9358 5.19015 13.9613C5.25069 13.9869 5.31558 14 5.38111 14C5.3871 14 5.39247 13.9966 5.39825 13.9966C5.4032 13.9966 5.40857 13.9996 5.41373 13.9996C5.54195 13.9996 5.66892 13.95 5.76658 13.8508L15.8537 3.58209C15.9001 3.53493 15.9369 3.47892 15.962 3.41727C15.9871 3.35563 16 3.28954 16 3.22281C16 3.15607 15.9871 3.08999 15.962 3.02834C15.9369 2.96669 15.9001 2.91069 15.8537 2.86353Z" fill="black"/>
</svg>
